<svg width="188" height="62" viewBox="0 0 188 62" fill="none" xmlns="http://www.w3.org/2000/svg">
<g filter="url(#filter0_d_3702_6)">
<path d="M10.1836 46.9531V47.6709H7.19629V46.9531H10.1836ZM7.85938 43.6035V51H7.09375V43.6035H7.85938ZM9.56152 47.4043V47.1855C9.56152 46.6523 9.6276 46.1602 9.75977 45.709C9.89193 45.2533 10.0811 44.859 10.3271 44.5264C10.5732 44.1891 10.8649 43.9294 11.2021 43.7471C11.5439 43.5602 11.9245 43.4668 12.3438 43.4668C12.763 43.4668 13.1458 43.5602 13.4922 43.7471C13.8385 43.9294 14.1325 44.1891 14.374 44.5264C14.6201 44.859 14.807 45.2533 14.9346 45.709C15.0667 46.1602 15.1328 46.6523 15.1328 47.1855V47.4043C15.1328 47.9466 15.0667 48.4456 14.9346 48.9014C14.807 49.3525 14.6201 49.7467 14.374 50.084C14.1325 50.4167 13.8408 50.6764 13.499 50.8633C13.1572 51.0456 12.7744 51.1367 12.3506 51.1367C11.9313 51.1367 11.5485 51.0456 11.2021 50.8633C10.8604 50.6764 10.5664 50.4167 10.3203 50.084C10.0788 49.7467 9.89193 49.3525 9.75977 48.9014C9.6276 48.4456 9.56152 47.9466 9.56152 47.4043ZM10.3271 47.1924V47.418C10.3271 47.819 10.3704 48.2018 10.457 48.5664C10.5436 48.9264 10.6712 49.2454 10.8398 49.5234C11.013 49.8014 11.2249 50.0202 11.4756 50.1797C11.7308 50.3392 12.0225 50.4189 12.3506 50.4189C12.6742 50.4189 12.9613 50.3415 13.2119 50.1865C13.4671 50.027 13.679 49.806 13.8477 49.5234C14.0208 49.2409 14.1507 48.9196 14.2373 48.5596C14.3285 48.1995 14.374 47.8167 14.374 47.4111V47.1924C14.374 46.7959 14.3285 46.4176 14.2373 46.0576C14.1507 45.693 14.0208 45.3717 13.8477 45.0938C13.679 44.8112 13.4671 44.5879 13.2119 44.4238C12.9613 44.2598 12.6719 44.1777 12.3438 44.1777C12.0156 44.1777 11.7262 44.2598 11.4756 44.4238C11.2249 44.5879 11.013 44.8112 10.8398 45.0938C10.6712 45.3717 10.5436 45.693 10.457 46.0576C10.3704 46.4176 10.3271 46.7959 10.3271 47.1924ZM23.4245 47.5957H21.2712L21.2644 46.8916H23.0827C23.4473 46.8916 23.7504 46.8438 23.9919 46.748C24.238 46.6523 24.4226 46.5088 24.5456 46.3174C24.6732 46.1214 24.737 45.8822 24.737 45.5996C24.737 45.3763 24.7006 45.1849 24.6277 45.0254C24.5547 44.8613 24.4454 44.7269 24.2995 44.6221C24.1583 44.5173 23.9805 44.4398 23.7663 44.3896C23.5521 44.335 23.306 44.3076 23.028 44.3076H21.4831V51H20.7175V43.6035H23.028C23.4109 43.6035 23.7527 43.6445 24.0534 43.7266C24.3588 43.804 24.6185 43.9248 24.8327 44.0889C25.0469 44.2484 25.211 44.4512 25.3249 44.6973C25.4389 44.9434 25.4958 45.2373 25.4958 45.5791C25.4958 45.8024 25.4594 46.0143 25.3864 46.2148C25.3135 46.4108 25.2042 46.5885 25.0583 46.748C24.917 46.903 24.7439 47.0306 24.5388 47.1309C24.3337 47.2266 24.0967 47.2858 23.8279 47.3086L23.4245 47.5957ZM23.4177 51H21.0251L21.3396 50.2891H23.4245C23.7572 50.2891 24.0398 50.2367 24.2722 50.1318C24.5046 50.027 24.6801 49.8743 24.7986 49.6738C24.9216 49.4688 24.9831 49.2181 24.9831 48.9219C24.9831 48.653 24.9216 48.4206 24.7986 48.2246C24.6801 48.0241 24.5046 47.8691 24.2722 47.7598C24.0398 47.6504 23.7572 47.5957 23.4245 47.5957H21.8318L21.8454 46.8916H23.8825L24.1902 47.1582C24.5092 47.1855 24.7826 47.2858 25.0105 47.459C25.2429 47.6276 25.4229 47.8418 25.5505 48.1016C25.6781 48.3613 25.7419 48.6416 25.7419 48.9424C25.7419 49.2842 25.6872 49.585 25.5779 49.8447C25.4685 50.0999 25.3112 50.3118 25.1062 50.4805C24.9057 50.6491 24.6618 50.779 24.3747 50.8701C24.0876 50.9567 23.7686 51 23.4177 51ZM33.7397 51.1436C33.3295 51.1436 32.9513 51.0775 32.6049 50.9453C32.2631 50.8086 31.9669 50.6035 31.7162 50.3301C31.4702 50.0521 31.2787 49.7035 31.142 49.2842C31.0053 48.8604 30.937 48.3613 30.937 47.7871V46.9326C30.937 46.3219 31.0099 45.7979 31.1557 45.3604C31.3015 44.9183 31.4975 44.5583 31.7436 44.2803C31.9942 43.9977 32.2791 43.7926 32.5981 43.665C32.9171 43.5329 33.2543 43.4668 33.6098 43.4668C34.0154 43.4668 34.3709 43.5329 34.6762 43.665C34.9861 43.7972 35.2459 43.9977 35.4555 44.2666C35.6651 44.5355 35.8224 44.875 35.9272 45.2852C36.032 45.6908 36.0844 46.1715 36.0844 46.7275V47.3633H31.395V46.6523H35.3256V46.4609C35.3165 45.9779 35.2482 45.5677 35.1205 45.2305C34.9975 44.8887 34.8107 44.6289 34.56 44.4512C34.3139 44.2689 33.9995 44.1777 33.6166 44.1777C33.3341 44.1777 33.0743 44.2301 32.8373 44.335C32.6004 44.4352 32.3953 44.5947 32.2221 44.8135C32.0535 45.0322 31.9236 45.3171 31.8325 45.668C31.7459 46.0189 31.7026 46.4404 31.7026 46.9326V47.7871C31.7026 48.2383 31.7504 48.6302 31.8461 48.9629C31.9464 49.291 32.0877 49.5645 32.27 49.7832C32.4523 49.9974 32.671 50.1592 32.9262 50.2686C33.1814 50.3734 33.464 50.4258 33.7739 50.4258C34.1567 50.4258 34.4916 50.362 34.7787 50.2344C35.0659 50.1022 35.3211 49.904 35.5444 49.6396L35.9477 50.1455C35.811 50.3232 35.6424 50.4896 35.4418 50.6445C35.2413 50.7949 35.0021 50.9157 34.7241 51.0068C34.4461 51.098 34.1179 51.1436 33.7397 51.1436ZM45.6955 43.6035V44.3213H42.5783V43.6035H45.6955ZM46.3312 43.6035V51H45.5656V43.6035H46.3312ZM42.38 43.6035H43.1457L43.0021 47.0762C42.9748 47.6413 42.936 48.138 42.8859 48.5664C42.8358 48.9948 42.7629 49.3639 42.6671 49.6738C42.576 49.9837 42.4598 50.2367 42.3185 50.4326C42.1772 50.624 42.0086 50.7676 41.8127 50.8633C41.6213 50.9544 41.3979 51 41.1427 51H40.8693V50.248L41.0812 50.2412C41.2453 50.2275 41.3865 50.1865 41.505 50.1182C41.6281 50.0452 41.7329 49.929 41.8195 49.7695C41.9106 49.6055 41.9858 49.3958 42.0451 49.1406C42.1043 48.8809 42.1499 48.5641 42.1818 48.1904C42.2137 47.8167 42.241 47.3724 42.2638 46.8574L42.38 43.6035ZM53.0165 49.6533L56.2704 43.6035H57.036V51H56.2704V44.9502L53.0165 51H52.2577V43.6035H53.0165V49.6533ZM63.6529 45.0254V53.8438H62.8941V43.6035H63.5982L63.6529 45.0254ZM67.9459 46.96V47.6504C67.9459 48.2474 67.8935 48.7646 67.7887 49.2021C67.6839 49.6396 67.5289 50.002 67.3238 50.2891C67.1188 50.5762 66.8681 50.7904 66.5719 50.9316C66.2802 51.0729 65.9475 51.1436 65.5738 51.1436C65.2047 51.1436 64.8788 51.0798 64.5963 50.9521C64.3137 50.8245 64.0722 50.6445 63.8717 50.4121C63.6757 50.1751 63.5185 49.8994 63.4 49.585C63.2815 49.266 63.1995 48.915 63.1539 48.5322V46.2559C63.204 45.8366 63.2906 45.4561 63.4137 45.1143C63.5367 44.7725 63.6962 44.4785 63.8922 44.2324C64.0882 43.9863 64.3229 43.7972 64.5963 43.665C64.8743 43.5329 65.1933 43.4668 65.5533 43.4668C65.9361 43.4668 66.2757 43.5329 66.5719 43.665C66.8681 43.7926 67.1188 43.9977 67.3238 44.2803C67.5289 44.5583 67.6839 44.9206 67.7887 45.3672C67.8935 45.8092 67.9459 46.3402 67.9459 46.96ZM67.1871 47.6504V46.96C67.1871 46.4814 67.1507 46.0713 67.0777 45.7295C67.0048 45.3831 66.8932 45.096 66.7428 44.8682C66.5969 44.6403 66.4078 44.4717 66.1754 44.3623C65.9475 44.2484 65.6786 44.1914 65.3688 44.1914C65.0543 44.1914 64.7831 44.2507 64.5553 44.3691C64.332 44.4831 64.1451 44.6357 63.9947 44.8271C63.8489 45.0186 63.7304 45.2282 63.6393 45.4561C63.5527 45.6794 63.4889 45.9004 63.4479 46.1191V48.71C63.5253 49.0107 63.6415 49.2933 63.7965 49.5576C63.9514 49.8219 64.1588 50.0339 64.4186 50.1934C64.6783 50.3483 64.9996 50.4258 65.3824 50.4258C65.6923 50.4258 65.9589 50.3711 66.1822 50.2617C66.4101 50.1478 66.5969 49.9769 66.7428 49.749C66.8932 49.5166 67.0048 49.2272 67.0777 48.8809C67.1507 48.5345 67.1871 48.1243 67.1871 47.6504ZM77.721 46.8984V47.6162H74.1185V46.8984H77.721ZM74.3099 43.6035V51H73.5443V43.6035H74.3099ZM78.3157 43.6035V51H77.557V43.6035H78.3157ZM84.7754 46.2764H86.7647C87.2569 46.2764 87.6716 46.3789 88.0088 46.584C88.3506 46.7891 88.6081 47.0693 88.7813 47.4248C88.959 47.7757 89.0479 48.1768 89.0479 48.6279C89.0479 48.9606 88.9978 49.2728 88.8975 49.5645C88.7972 49.8516 88.6514 50.1022 88.46 50.3164C88.2686 50.5306 88.0293 50.6992 87.7422 50.8223C87.4597 50.9408 87.1315 51 86.7579 51H84.2627V43.6035H85.0284V50.2822H86.7715C87.1361 50.2822 87.4278 50.2048 87.6465 50.0498C87.8698 49.8949 88.0316 49.6921 88.1319 49.4414C88.2321 49.1908 88.2823 48.9264 88.2823 48.6484C88.2823 48.375 88.2321 48.113 88.1319 47.8623C88.0316 47.6071 87.8698 47.3997 87.6465 47.2402C87.4278 47.0762 87.1338 46.9941 86.7647 46.9941H84.7754V46.2764ZM91.1739 43.6035V51H90.4082V43.6035H91.1739ZM97.9412 49.6533L101.195 43.6035H101.961V51H101.195V44.9502L97.9412 51H97.1824V43.6035H97.9412V49.6533ZM100.826 40.9375H101.53C101.53 41.2839 101.45 41.5915 101.291 41.8604C101.131 42.1247 100.903 42.332 100.607 42.4824C100.316 42.6328 99.9646 42.708 99.5545 42.708C98.9392 42.708 98.4539 42.5439 98.0984 42.2158C97.7475 41.8831 97.572 41.457 97.572 40.9375H98.2761C98.2761 41.252 98.3718 41.5254 98.5632 41.7578C98.7546 41.9857 99.0828 42.0996 99.5476 42.0996C100.008 42.0996 100.336 41.9857 100.532 41.7578C100.728 41.5254 100.826 41.252 100.826 40.9375ZM118.23 49.8652L120.629 43.6035H121.381L118.496 51H117.956L115.085 43.6035H115.83L118.23 49.8652ZM115.605 43.6035V51H114.839V43.6035H115.605ZM120.807 51V43.6035H121.572V51H120.807ZM131.204 49.6738V45.6475C131.204 45.3011 131.145 45.0208 131.026 44.8066C130.908 44.5879 130.735 44.4284 130.507 44.3281C130.279 44.2279 129.999 44.1777 129.666 44.1777C129.351 44.1777 129.071 44.2415 128.825 44.3691C128.584 44.4922 128.394 44.6654 128.258 44.8887C128.126 45.1074 128.059 45.3604 128.059 45.6475L127.301 45.6406C127.301 45.3581 127.358 45.0869 127.472 44.8271C127.586 44.5628 127.747 44.3304 127.957 44.1299C128.167 43.9248 128.417 43.763 128.709 43.6445C129.005 43.526 129.333 43.4668 129.693 43.4668C130.135 43.4668 130.527 43.5374 130.869 43.6787C131.211 43.82 131.477 44.0524 131.669 44.376C131.865 44.6995 131.963 45.1279 131.963 45.6611V49.4414C131.963 49.7012 131.979 49.9678 132.011 50.2412C132.047 50.5146 132.095 50.738 132.154 50.9111V51H131.348C131.297 50.8405 131.261 50.6377 131.238 50.3916C131.215 50.141 131.204 49.9017 131.204 49.6738ZM131.361 46.6797L131.382 47.3291H130.069C129.714 47.3291 129.402 47.3678 129.133 47.4453C128.864 47.5228 128.638 47.6344 128.456 47.7803C128.278 47.9261 128.144 48.0993 128.053 48.2998C127.962 48.5003 127.916 48.7282 127.916 48.9834C127.916 49.3115 127.968 49.5804 128.073 49.79C128.178 49.9951 128.331 50.1478 128.531 50.248C128.736 50.3438 128.98 50.3916 129.263 50.3916C129.636 50.3916 129.964 50.3187 130.247 50.1729C130.534 50.0225 130.769 49.8242 130.951 49.5781C131.133 49.3275 131.252 49.0632 131.307 48.7852L131.512 49.25C131.466 49.4596 131.382 49.6738 131.259 49.8926C131.136 50.1113 130.976 50.3164 130.78 50.5078C130.584 50.6947 130.352 50.8473 130.083 50.9658C129.814 51.0843 129.511 51.1436 129.174 51.1436C128.768 51.1436 128.413 51.0661 128.107 50.9111C127.807 50.7562 127.572 50.5215 127.403 50.207C127.239 49.8926 127.157 49.5052 127.157 49.0449C127.157 48.7031 127.214 48.3887 127.328 48.1016C127.447 47.8145 127.622 47.5661 127.854 47.3564C128.087 47.1423 128.379 46.9759 128.729 46.8574C129.08 46.7389 129.488 46.6797 129.953 46.6797H131.361ZM141.724 43.6035V44.3213H138.641V51H137.876V43.6035H141.724ZM150.604 49.6738V45.6475C150.604 45.3011 150.545 45.0208 150.426 44.8066C150.308 44.5879 150.134 44.4284 149.907 44.3281C149.679 44.2279 149.398 44.1777 149.066 44.1777C148.751 44.1777 148.471 44.2415 148.225 44.3691C147.983 44.4922 147.794 44.6654 147.658 44.8887C147.525 45.1074 147.459 45.3604 147.459 45.6475L146.701 45.6406C146.701 45.3581 146.758 45.0869 146.871 44.8271C146.985 44.5628 147.147 44.3304 147.357 44.1299C147.566 43.9248 147.817 43.763 148.109 43.6445C148.405 43.526 148.733 43.4668 149.093 43.4668C149.535 43.4668 149.927 43.5374 150.269 43.6787C150.611 43.82 150.877 44.0524 151.069 44.376C151.265 44.6995 151.363 45.1279 151.363 45.6611V49.4414C151.363 49.7012 151.379 49.9678 151.411 50.2412C151.447 50.5146 151.495 50.738 151.554 50.9111V51H150.747C150.697 50.8405 150.661 50.6377 150.638 50.3916C150.615 50.141 150.604 49.9017 150.604 49.6738ZM150.761 46.6797L150.782 47.3291H149.469C149.114 47.3291 148.801 47.3678 148.533 47.4453C148.264 47.5228 148.038 47.6344 147.856 47.7803C147.678 47.9261 147.544 48.0993 147.452 48.2998C147.361 48.5003 147.316 48.7282 147.316 48.9834C147.316 49.3115 147.368 49.5804 147.473 49.79C147.578 49.9951 147.73 50.1478 147.931 50.248C148.136 50.3438 148.38 50.3916 148.662 50.3916C149.036 50.3916 149.364 50.3187 149.647 50.1729C149.934 50.0225 150.169 49.8242 150.351 49.5781C150.533 49.3275 150.652 49.0632 150.706 48.7852L150.911 49.25C150.866 49.4596 150.782 49.6738 150.659 49.8926C150.536 50.1113 150.376 50.3164 150.18 50.5078C149.984 50.6947 149.752 50.8473 149.483 50.9658C149.214 51.0843 148.911 51.1436 148.574 51.1436C148.168 51.1436 147.813 51.0661 147.507 50.9111C147.206 50.7562 146.972 50.5215 146.803 50.207C146.639 49.8926 146.557 49.5052 146.557 49.0449C146.557 48.7031 146.614 48.3887 146.728 48.1016C146.846 47.8145 147.022 47.5661 147.254 47.3564C147.487 47.1423 147.778 46.9759 148.129 46.8574C148.48 46.7389 148.888 46.6797 149.353 46.6797H150.761ZM159.408 47.418H158.383V46.8506H159.347C159.711 46.8506 160.001 46.7982 160.215 46.6934C160.429 46.5885 160.584 46.4382 160.68 46.2422C160.775 46.0462 160.823 45.8184 160.823 45.5586C160.823 45.3079 160.771 45.0778 160.666 44.8682C160.566 44.6585 160.406 44.4899 160.188 44.3623C159.969 44.2347 159.677 44.1709 159.313 44.1709C159.03 44.1709 158.773 44.2324 158.54 44.3555C158.308 44.4785 158.119 44.6471 157.973 44.8613C157.831 45.0755 157.761 45.3216 157.761 45.5996H157.002C157.002 45.1621 157.109 44.7839 157.323 44.4648C157.538 44.1458 157.82 43.8997 158.171 43.7266C158.522 43.5534 158.902 43.4668 159.313 43.4668C159.668 43.4668 159.985 43.5124 160.263 43.6035C160.545 43.6947 160.785 43.8314 160.981 44.0137C161.177 44.1914 161.327 44.4102 161.432 44.6699C161.537 44.9297 161.589 45.2305 161.589 45.5723C161.589 45.8229 161.541 46.0599 161.445 46.2832C161.35 46.5065 161.208 46.7048 161.022 46.8779C160.835 47.0465 160.605 47.1787 160.331 47.2744C160.062 47.3701 159.755 47.418 159.408 47.418ZM158.383 47.0283H159.408C159.791 47.0283 160.124 47.0716 160.406 47.1582C160.693 47.2402 160.933 47.3633 161.124 47.5273C161.316 47.6914 161.459 47.8942 161.555 48.1357C161.65 48.3773 161.698 48.653 161.698 48.9629C161.698 49.3047 161.641 49.61 161.527 49.8789C161.413 50.1478 161.249 50.3734 161.035 50.5557C160.826 50.738 160.575 50.8792 160.283 50.9795C159.992 51.0798 159.67 51.1299 159.319 51.1299C158.932 51.1299 158.552 51.0501 158.178 50.8906C157.809 50.7311 157.503 50.485 157.262 50.1523C157.02 49.8151 156.899 49.3867 156.899 48.8672H157.658C157.658 49.1543 157.729 49.4163 157.87 49.6533C158.016 49.8903 158.212 50.0794 158.458 50.2207C158.709 50.362 158.994 50.4326 159.313 50.4326C159.673 50.4326 159.971 50.3711 160.208 50.248C160.45 50.1204 160.63 49.9473 160.748 49.7285C160.871 49.5098 160.933 49.2591 160.933 48.9766C160.933 48.6484 160.873 48.3841 160.755 48.1836C160.641 47.9785 160.466 47.8281 160.229 47.7324C159.996 47.6367 159.702 47.5889 159.347 47.5889H158.383V47.0283ZM168.055 49.6533L171.309 43.6035H172.075V51H171.309V44.9502L168.055 51H167.297V43.6035H168.055V49.6533ZM182.171 46.8984V47.6162H178.569V46.8984H182.171ZM178.76 43.6035V51H177.995V43.6035H178.76ZM182.766 43.6035V51H182.007V43.6035H182.766Z" fill="#919191"/>
<path d="M16.312 27.64C13.9867 27.64 11.9493 27.0747 10.2 25.944C8.45067 24.8133 7.096 23.2347 6.136 21.208C5.19733 19.1813 4.728 16.8453 4.728 14.2C4.728 11.5547 5.22933 9.21867 6.232 7.192C7.23467 5.16533 8.632 3.58667 10.424 2.456C12.2373 1.32533 14.3067 0.759998 16.632 0.759998C18.8293 0.759998 20.6853 1.31467 22.2 2.424L24.152 0.759998H24.824V8.696H24.152L22.04 3.416C20.504 2.136 18.7013 1.496 16.632 1.496C15.1387 1.496 13.7947 1.88 12.6 2.648C11.4267 3.416 10.4987 4.536 9.816 6.008C9.15467 7.48 8.824 9.22933 8.824 11.256V17.112C8.824 19.1387 9.13333 20.888 9.752 22.36C10.392 23.832 11.2667 24.9627 12.376 25.752C13.5067 26.52 14.8187 26.904 16.312 26.904C18.1467 26.904 19.5653 26.3387 20.568 25.208C21.592 24.0773 22.104 22.5627 22.104 20.664V17.688L19.128 17.24V16.536H28.696V17.24L25.72 17.688V20.664C25.72 21.88 25.3893 23.0213 24.728 24.088C24.0667 25.1333 23.032 25.9867 21.624 26.648C20.216 27.3093 18.4453 27.64 16.312 27.64ZM38.3828 27.32C36.8468 27.32 35.4494 26.968 34.1908 26.264C32.9321 25.5387 31.9294 24.5253 31.1828 23.224C30.4574 21.9013 30.0948 20.3973 30.0948 18.712C30.0948 17.0267 30.4574 15.5333 31.1828 14.232C31.9294 12.9307 32.9321 11.928 34.1908 11.224C35.4494 10.4987 36.8468 10.136 38.3828 10.136C39.9188 10.136 41.3161 10.4987 42.5748 11.224C43.8334 11.928 44.8254 12.9307 45.5508 14.232C46.2974 15.5333 46.6708 17.0267 46.6708 18.712C46.6708 20.3973 46.2974 21.9013 45.5508 23.224C44.8254 24.5253 43.8334 25.5387 42.5748 26.264C41.3161 26.968 39.9188 27.32 38.3828 27.32ZM38.3828 26.616C39.9614 26.616 41.1454 26.04 41.9348 24.888C42.7454 23.736 43.1508 22.2107 43.1508 20.312V17.112C43.1508 15.2133 42.7454 13.6987 41.9348 12.568C41.1454 11.416 39.9614 10.84 38.3828 10.84C36.8041 10.84 35.6094 11.416 34.7988 12.568C34.0094 13.6987 33.6148 15.2133 33.6148 17.112V20.312C33.6148 22.2107 34.0094 23.736 34.7988 24.888C35.6094 26.04 36.8041 26.616 38.3828 26.616ZM48.6713 27V26.36L51.0713 26.04V2.36L48.6713 2.04V1.4H54.2713V26.04L56.5113 26.36V27H48.6713ZM66.2115 27.32C64.6968 27.32 63.3635 26.968 62.2115 26.264C61.0595 25.5387 60.1635 24.536 59.5235 23.256C58.8835 21.9547 58.5635 20.44 58.5635 18.712C58.5635 16.984 58.8835 15.48 59.5235 14.2C60.1635 12.8987 61.0595 11.896 62.2115 11.192C63.3635 10.488 64.6968 10.136 66.2115 10.136C67.4488 10.136 68.5262 10.4667 69.4435 11.128C70.3608 11.768 71.0862 12.6533 71.6195 13.784V2.36L69.3795 2.04V1.4H74.8195V26.04L77.0595 26.36V27H71.6195V23.672C71.0862 24.8027 70.3608 25.6987 69.4435 26.36C68.5262 27 67.4488 27.32 66.2115 27.32ZM66.5315 26.52C67.4702 26.52 68.3128 26.2533 69.0595 25.72C69.8275 25.1653 70.4355 24.44 70.8835 23.544C71.3528 22.6267 71.5982 21.6347 71.6195 20.568V16.888C71.5982 15.8213 71.3528 14.84 70.8835 13.944C70.4355 13.0267 69.8275 12.3013 69.0595 11.768C68.3128 11.2133 67.4702 10.936 66.5315 10.936C63.5662 10.936 62.0835 12.9947 62.0835 17.112V20.312C62.0835 24.4507 63.5662 26.52 66.5315 26.52ZM81.4948 36.344C80.3854 36.344 79.4894 36.0667 78.8068 35.512C78.1241 34.9573 77.7828 34.2107 77.7828 33.272C77.7828 32.632 77.9641 32.1093 78.3268 31.704C78.7108 31.32 79.1801 31.128 79.7348 31.128C80.1401 31.128 80.5028 31.2133 80.8228 31.384C81.1428 31.5547 81.3988 31.8107 81.5908 32.152C81.2708 32.6 81.1108 33.0693 81.1108 33.56C81.1108 33.9867 81.2494 34.3387 81.5268 34.616C81.8041 34.8933 82.1561 35.032 82.5828 35.032C83.0948 35.032 83.5321 34.8613 83.8948 34.52C84.2788 34.1787 84.6201 33.5813 84.9188 32.728L86.8388 27.224L79.4148 11.416L77.2707 11.096V10.456H85.2388V11.096L82.9988 11.48L88.3428 22.904L92.1508 11.896L89.3988 11.096V10.456H95.1588V11.096L92.9828 11.896L85.8148 32.728C85.3668 33.9867 84.8228 34.904 84.1828 35.48C83.5641 36.056 82.6681 36.344 81.4948 36.344Z" fill="#E1A661"/>
<path d="M113.924 27.64C111.94 27.64 109.988 27.0747 108.068 25.944L105.348 27.32H104.644V19.096H105.348L108.1 25.048C109.871 26.3067 111.897 26.936 114.18 26.936C116.057 26.936 117.604 26.4453 118.82 25.464C120.057 24.4613 120.676 23.064 120.676 21.272C120.676 19.9707 120.281 18.9467 119.492 18.2C118.703 17.432 117.423 16.824 115.652 16.376L110.34 15C108.484 14.5093 107.087 13.6773 106.148 12.504C105.209 11.3093 104.74 9.90133 104.74 8.28C104.74 6.808 105.028 5.50667 105.604 4.376C106.201 3.224 107.065 2.33867 108.196 1.72C109.327 1.08 110.671 0.759998 112.228 0.759998C114.169 0.759998 115.908 1.09067 117.444 1.752L119.78 0.759998H120.484V7.288H119.78L117.476 2.616C115.876 1.848 114.137 1.464 112.26 1.464C110.404 1.464 108.943 1.944 107.876 2.904C106.809 3.84267 106.276 5.09067 106.276 6.648C106.276 7.8 106.649 8.70667 107.396 9.368C108.164 10.0293 109.284 10.552 110.756 10.936L116.484 12.44C118.34 12.9093 119.716 13.72 120.612 14.872C121.529 16.0027 121.988 17.7307 121.988 20.056C121.988 22.424 121.252 24.28 119.78 25.624C118.329 26.968 116.377 27.64 113.924 27.64ZM131.301 27.32C129.893 27.32 128.762 26.968 127.909 26.264C127.077 25.56 126.661 24.44 126.661 22.904V11.384L124.389 11.064V10.424H126.661V7.768L129.861 6.968V10.424H134.021V11.064L129.861 11.384V22.84C129.861 25.1013 130.671 26.232 132.293 26.232C132.634 26.232 132.954 26.1787 133.253 26.072C133.573 25.9653 133.818 25.8587 133.989 25.752C134.181 25.6453 134.298 25.5707 134.341 25.528L134.757 26.04C133.797 26.8933 132.645 27.32 131.301 27.32ZM143.602 27.32C142.066 27.32 140.668 26.968 139.41 26.264C138.151 25.5387 137.148 24.5253 136.402 23.224C135.676 21.9013 135.314 20.3973 135.314 18.712C135.314 17.0267 135.676 15.5333 136.402 14.232C137.148 12.9307 138.151 11.928 139.41 11.224C140.668 10.4987 142.066 10.136 143.602 10.136C145.138 10.136 146.535 10.4987 147.794 11.224C149.052 11.928 150.044 12.9307 150.77 14.232C151.516 15.5333 151.89 17.0267 151.89 18.712C151.89 20.3973 151.516 21.9013 150.77 23.224C150.044 24.5253 149.052 25.5387 147.794 26.264C146.535 26.968 145.138 27.32 143.602 27.32ZM143.602 26.616C145.18 26.616 146.364 26.04 147.154 24.888C147.964 23.736 148.37 22.2107 148.37 20.312V17.112C148.37 15.2133 147.964 13.6987 147.154 12.568C146.364 11.416 145.18 10.84 143.602 10.84C142.023 10.84 140.828 11.416 140.018 12.568C139.228 13.6987 138.834 15.2133 138.834 17.112V20.312C138.834 22.2107 139.228 23.736 140.018 24.888C140.828 26.04 142.023 26.616 143.602 26.616ZM154.114 26.36L156.354 26.04V11.384L154.114 11.064V10.424H159.554V12.888C160.898 11.0533 162.413 10.136 164.098 10.136C164.909 10.136 165.623 10.3493 166.242 10.776C166.861 11.1813 167.17 11.768 167.17 12.536C167.17 13.0907 166.989 13.56 166.626 13.944C166.263 14.3067 165.783 14.488 165.186 14.488C164.503 14.488 163.949 14.2213 163.522 13.688C163.757 13.3893 163.874 13.0693 163.874 12.728C163.874 12.3653 163.746 12.0773 163.49 11.864C163.255 11.6293 162.935 11.512 162.53 11.512C162.082 11.512 161.623 11.7253 161.154 12.152C160.685 12.5573 160.151 13.1973 159.554 14.072V26.04L162.114 26.36V27H154.114V26.36ZM176.918 27.32C175.339 27.32 173.91 26.968 172.63 26.264C171.35 25.5387 170.336 24.5253 169.59 23.224C168.843 21.9227 168.47 20.4187 168.47 18.712C168.47 17.0053 168.832 15.512 169.558 14.232C170.304 12.9307 171.296 11.928 172.534 11.224C173.792 10.4987 175.19 10.136 176.726 10.136C178.07 10.136 179.275 10.4347 180.342 11.032C181.408 11.6293 182.24 12.4613 182.838 13.528C183.435 14.5733 183.744 15.7787 183.766 17.144H171.99V20.312C171.99 22.1893 172.406 23.7147 173.238 24.888C174.091 26.04 175.318 26.616 176.918 26.616C178.39 26.616 179.691 26.2 180.822 25.368C181.952 24.536 182.646 23.4587 182.902 22.136H183.638C183.339 23.7147 182.582 24.9733 181.366 25.912C180.15 26.8507 178.667 27.32 176.918 27.32ZM180.246 16.344C180.246 14.488 179.958 13.112 179.382 12.216C178.806 11.2987 177.91 10.84 176.694 10.84C175.264 10.84 174.155 11.3413 173.366 12.344C172.576 13.3467 172.128 14.68 172.022 16.344H180.246Z" fill="#303030"/>
</g>
<defs>
<filter id="filter0_d_3702_6" x="0.728027" y="0.76001" width="187.038" height="61.0837" filterUnits="userSpaceOnUse" color-interpolation-filters="sRGB">
<feFlood flood-opacity="0" result="BackgroundImageFix"/>
<feColorMatrix in="SourceAlpha" type="matrix" values="0 0 0 0 0 0 0 0 0 0 0 0 0 0 0 0 0 0 127 0" result="hardAlpha"/>
<feOffset dy="4"/>
<feGaussianBlur stdDeviation="2"/>
<feComposite in2="hardAlpha" operator="out"/>
<feColorMatrix type="matrix" values="0 0 0 0 0 0 0 0 0 0 0 0 0 0 0 0 0 0 0.25 0"/>
<feBlend mode="normal" in2="BackgroundImageFix" result="effect1_dropShadow_3702_6"/>
<feBlend mode="normal" in="SourceGraphic" in2="effect1_dropShadow_3702_6" result="shape"/>
</filter>
</defs>
</svg>
